<?xml version="1.0" encoding="UTF-8" standalone="no"?>
<svg
   xmlns:dc="http://purl.org/dc/elements/1.1/"
   xmlns:cc="http://creativecommons.org/ns#"
   xmlns:rdf="http://www.w3.org/1999/02/22-rdf-syntax-ns#"
   xmlns:svg="http://www.w3.org/2000/svg"
   xmlns="http://www.w3.org/2000/svg"
   xmlns:sodipodi="http://sodipodi.sourceforge.net/DTD/sodipodi-0.dtd"
   xmlns:inkscape="http://www.inkscape.org/namespaces/inkscape"
   inkscape:version="1.0 (4035a4fb49, 2020-05-01)"
   sodipodi:docname="icon.svg"
   viewBox="0 0 64 64"
   height="64"
   width="64"
   id="svg4092"
   version="1.1"
   inkscape:export-filename="C:\Users\Frits\Documents\AC App Development\trackconditions\assets\icon_ON_large.png"
   inkscape:export-xdpi="300"
   inkscape:export-ydpi="300">
  <metadata
     id="metadata4098">
    <rdf:RDF>
      <cc:Work
         rdf:about="">
        <dc:format>image/svg+xml</dc:format>
        <dc:type
           rdf:resource="http://purl.org/dc/dcmitype/StillImage" />
        <dc:title />
      </cc:Work>
    </rdf:RDF>
  </metadata>
  <defs
     id="defs4096" />
  <sodipodi:namedview
     inkscape:current-layer="layer7"
     inkscape:window-maximized="1"
     inkscape:window-y="-8"
     inkscape:window-x="-8"
     inkscape:cy="32.071512"
     inkscape:cx="31.83369"
     inkscape:zoom="11.484375"
     inkscape:pagecheckerboard="true"
     showgrid="false"
     id="namedview4094"
     inkscape:window-height="1017"
     inkscape:window-width="1920"
     inkscape:pageshadow="2"
     inkscape:pageopacity="0"
     guidetolerance="10"
     gridtolerance="10"
     objecttolerance="10"
     borderopacity="1"
     bordercolor="#666666"
     pagecolor="#ffffff"
     inkscape:document-rotation="0" />
  <g
     style="display:inline"
     inkscape:label="Activated"
     id="layer6"
     inkscape:groupmode="layer">
    <circle
       style="fill:#dfff00;fill-opacity:1;stroke-width:0"
       id="circle4114"
       r="28.955103"
       cy="32"
       cx="32" />
  </g>
  <g
     inkscape:label="Details"
     id="layer7"
     inkscape:groupmode="layer"
     style="display:inline">
    <path
       sodipodi:nodetypes="cccccccccc"
       id="path869"
       d="m 16.216607,47.783393 -0.375794,-22.923498 6.764311,-6.764312 -1e-6,18.038163 22.547704,-22.547705 5.261132,5.261132 -22.547705,22.547704 18.038163,-1e-6 -6.764312,6.764312 z"
       style="display:inline;fill:#ff3500;fill-opacity:1;stroke:none;stroke-width:0.531455px;stroke-linecap:butt;stroke-linejoin:miter;stroke-opacity:1" />
  </g>
  <g
     style="display:inline"
     inkscape:label="Ring"
     id="layer5"
     inkscape:groupmode="layer">
    <path
       d="M 31.765625,3.0449219 A 28.955103,28.955103 0 0 0 3.0449219,32 28.955103,28.955103 0 0 0 32,60.955078 28.955103,28.955103 0 0 0 60.955078,32 28.955103,28.955103 0 0 0 32,3.0449219 a 28.955103,28.955103 0 0 0 -0.234375,0 z M 32,6.7011719 A 25.29796,25.29796 0 0 1 57.298828,32 25.29796,25.29796 0 0 1 32,57.298828 25.29796,25.29796 0 0 1 6.7011719,32 25.29796,25.29796 0 0 1 32,6.7011719 Z"
       style="fill:#ffffff;stroke-width:0"
       id="path4110" />
  </g>
</svg>
